HIERARCHY
ROOT Hips
{
	OFFSET 0.000000 0.000000 0.000000
	CHANNELS 6 Xposition Yposition Zposition Zrotation Yrotation Xrotation 
	JOINT LHipJoint
	{
		OFFSET 0.000000 0.000000 0.000000
		CHANNELS 3 Zrotation Yrotation Xrotation
		JOINT LeftUpLeg
		{
			OFFSET 1.363060 -1.794630 0.839290
			CHANNELS 3 Zrotation Yrotation Xrotation
			JOINT LeftLeg
			{
				OFFSET 2.448110 -6.726130 0.000000
				CHANNELS 3 Zrotation Yrotation Xrotation
				JOINT LeftFoot
				{
					OFFSET 2.562200 -7.039590 0.000000
					CHANNELS 3 Zrotation Yrotation Xrotation
					JOINT LeftToeBase
					{
						OFFSET 0.157640 -0.433110 2.322550
						CHANNELS 3 Zrotation Yrotation Xrotation
						End Site
						{
							OFFSET 0.000000 0.000000 0.000000
						}
					}
				}
			}
		}
	}
	JOINT RHipJoint
	{
		OFFSET 0.000000 0.000000 0.000000
		CHANNELS 3 Zrotation Yrotation Xrotation
		JOINT RightUpLeg
		{
			OFFSET -1.305520 -1.794630 0.839290
			CHANNELS 3 Zrotation Yrotation Xrotation
			JOINT RightLeg
			{
				OFFSET -2.542530 -6.985550 0.000000
				CHANNELS 3 Zrotation Yrotation Xrotation
				JOINT RightFoot
				{
					OFFSET -2.568260 -7.056230 0.000000
					CHANNELS 3 Zrotation Yrotation Xrotation
					JOINT RightToeBase
					{
						OFFSET -0.164730 -0.452590 2.363150
						CHANNELS 3 Zrotation Yrotation Xrotation
						End Site
						{
							OFFSET 0.000000 0.000000 0.000000
						}
					}
				}
			}
		}
	}
	JOINT LowerBack
	{
		OFFSET 0.000000 0.000000 0.000000
		CHANNELS 3 Zrotation Yrotation Xrotation
		JOINT Spine
		{
			OFFSET 0.028270 2.035590 -0.193380
			CHANNELS 3 Zrotation Yrotation Xrotation
			JOINT Spine1
			{
				OFFSET 0.056720 2.048850 -0.042750
				CHANNELS 3 Zrotation Yrotation Xrotation
				JOINT Neck
				{
					OFFSET 0.000000 0.000000 0.000000
					CHANNELS 3 Zrotation Yrotation Xrotation
					JOINT Neck1
					{
						OFFSET -0.054170 1.746240 0.172020
						CHANNELS 3 Zrotation Yrotation Xrotation
						JOINT Head
						{
							OFFSET 0.104070 1.761360 -0.123970
							CHANNELS 3 Zrotation Yrotation Xrotation
							End Site
							{
								OFFSET 0.000000 0.000000 0.000000
							}
						}
					}
				}
				JOINT LeftShoulder
				{
					OFFSET 0.000000 0.000000 0.000000
					CHANNELS 3 Zrotation Yrotation Xrotation
					JOINT LeftArm
					{
						OFFSET 3.362410 1.200890 -0.311210
						CHANNELS 3 Zrotation Yrotation Xrotation
						JOINT LeftForeArm
						{
							OFFSET 4.983000 -0.000000 -0.000000
							CHANNELS 3 Zrotation Yrotation Xrotation
							JOINT LeftHand
							{
								OFFSET 3.483560 -0.000000 -0.000000
								CHANNELS 3 Zrotation Yrotation Xrotation
								JOINT LeftFingerBase
								{
									OFFSET 0.000000 0.000000 0.000000
									CHANNELS 3 Zrotation Yrotation Xrotation
									JOINT LeftHandIndex1
									{
										OFFSET 0.715260 -0.000000 -0.000000
										CHANNELS 3 Zrotation Yrotation Xrotation
										End Site
										{
											OFFSET 0.000000 0.000000 0.000000
										}
									}
								}
								JOINT LThumb
								{
									OFFSET 0.000000 0.000000 0.000000
									CHANNELS 3 Zrotation Yrotation Xrotation
									End Site
									{
										OFFSET 0.000000 0.000000 0.000000
									}
								}
							}
						}
					}
				}
				JOINT RightShoulder
				{
					OFFSET 0.000000 0.000000 0.000000
					CHANNELS 3 Zrotation Yrotation Xrotation
					JOINT RightArm
					{
						OFFSET -3.136600 1.374050 -0.404650
						CHANNELS 3 Zrotation Yrotation Xrotation
						JOINT RightForeArm
						{
							OFFSET -5.241900 -0.000000 -0.000000
							CHANNELS 3 Zrotation Yrotation Xrotation
							JOINT RightHand
							{
								OFFSET -3.444170 -0.000000 -0.000000
								CHANNELS 3 Zrotation Yrotation Xrotation
								JOINT RightFingerBase
								{
									OFFSET 0.000000 0.000000 0.000000
									CHANNELS 3 Zrotation Yrotation Xrotation
									JOINT RightHandIndex1
									{
										OFFSET -0.622530 -0.000000 -0.000000
										CHANNELS 3 Zrotation Yrotation Xrotation
										End Site
										{
											OFFSET 0.000000 0.000000 0.000000
										}
									}
								}
								JOINT RThumb
								{
									OFFSET 0.000000 0.000000 0.000000
									CHANNELS 3 Zrotation Yrotation Xrotation
									End Site
									{
										OFFSET 0.000000 0.000000 0.000000
									}
								}
							}
						}
					}
				}
			}
		}
	}
}
MOTION
Frames: 5
Frame Time: 0.016667
0.208179 17.073865 -0.139115 1.841051 -1.763269 10.131330 -6.157161 11.116237 -4.878362 -19.675903 -4.063949 -10.702581 -1.992164 -1.507277 -5.765522 -0.211928 1.557731 2.315026 0.000000 0.000000 0.000000 4.776050 -16.230656 7.169689 11.080043 7.972292 -8.642976 3.986210 -13.538061 33.188109 3.437782 2.084099 -18.367502 0.000000 0.000000 0.000000 3.044541 2.951811 5.620182 -5.370899 1.808295 -0.172846 2.777037 1.737760 -3.238798 2.275148 -0.924518 -9.904343 -0.586790 -0.251525 3.617873 0.000000 0.000000 0.000000 5.023198 11.138577 9.463207 -76.293658 -6.002565 -7.278724 26.748894 -43.559522 0.225142 8.326373 -12.146063 0.108234 8.375676 -12.107475 0.000000 0.000000 0.000000 0.000000 0.000000 0.000000 0.000000 -4.050584 -10.016412 5.967901 65.613208 12.544128 -4.880501 -0.965328 55.380973 -0.011559 -1.482433 3.181910 -0.005872 -1.485024 3.181236 0.000000 0.000000 0.000000 0.000000 0.000000 0.000000 0.000000 
0.233339 17.101058 0.022912 1.530504 -2.312875 10.359849 -6.472542 11.275400 -4.557531 -18.676794 -4.148965 -11.470729 -2.652373 -0.851851 -4.594517 -0.188295 1.125350 0.367234 0.000000 0.000000 0.000000 4.323496 -16.378623 7.298020 11.819124 8.003644 -8.000636 3.572298 -12.871463 32.493706 3.232265 1.722563 -16.294852 0.000000 0.000000 0.000000 3.384944 3.081885 5.465572 -5.386281 1.916537 -0.914747 2.584062 1.844414 -2.007357 2.513192 -0.808336 -10.322504 -0.319985 -0.249054 3.940714 0.000000 0.000000 0.000000 5.238852 10.601106 10.416849 -77.573518 -6.742514 -11.110043 42.496881 -52.050958 0.088948 12.150006 -13.482777 0.033783 12.251653 -13.389031 0.000000 0.000000 0.000000 0.000000 0.000000 0.000000 0.000000 -4.567694 -9.810083 6.181929 66.733453 12.461986 -6.455316 -5.951751 53.296104 0.021048 -1.631031 3.761334 0.010458 -1.632597 3.760798 0.000000 0.000000 0.000000 0.000000 0.000000 0.000000 0.000000 
0.260743 17.130069 0.184424 1.107893 -2.936301 10.558522 -6.739403 11.492517 -4.121277 -17.088973 -4.132069 -12.505308 -4.466313 0.094107 -3.297178 -0.130154 1.016304 -1.526001 0.000000 0.000000 0.000000 3.582318 -16.609829 7.317230 13.044535 8.004630 -7.006383 3.045426 -12.023436 31.636808 3.025931 1.314961 -13.940677 0.000000 0.000000 0.000000 3.865655 3.178873 5.335598 -5.311157 2.013281 -1.537889 2.234500 1.979809 -1.287367 2.656943 -0.725353 -10.392294 -0.049295 -0.250066 4.322929 0.000000 0.000000 0.000000 5.437266 10.238443 10.548211 -77.676482 -8.061091 -14.685380 59.630877 -56.762253 -0.176645 15.613156 -13.416250 -0.106291 15.758643 -13.260357 0.000000 0.000000 0.000000 0.000000 0.000000 0.000000 0.000000 -5.152759 -9.414653 6.483567 68.047800 12.347868 -7.692429 -11.393935 50.599410 0.065612 -1.801081 4.330819 0.032790 -1.800974 4.330650 0.000000 0.000000 0.000000 0.000000 0.000000 0.000000 0.000000 
0.323139 17.149387 0.334500 1.122969 -3.132908 10.559532 -7.754897 10.738935 -4.208777 -15.106104 -3.716370 -13.089498 -6.188393 1.360910 -1.569437 -0.096643 0.761484 -4.089365 0.000000 0.000000 0.000000 3.559253 -16.386774 7.398511 12.887027 8.332142 -7.115323 2.422129 -12.079937 32.526078 3.165958 0.303952 -11.482701 0.000000 0.000000 0.000000 4.961369 3.226176 5.427809 -6.011610 1.894691 -1.681005 0.917963 2.005783 -0.554689 3.085992 -0.773156 -10.706740 0.074790 -0.233843 4.139301 0.000000 0.000000 0.000000 6.069568 9.938588 9.455349 -75.628608 -8.904047 -15.979560 60.399695 -59.130711 -0.290932 14.456916 -11.563998 -0.158314 14.569758 -11.444256 -0.000000 0.000000 0.000000 0.000000 0.000000 0.000000 0.000000 -7.503166 -8.253212 6.886321 71.218079 12.490315 -7.633003 -13.939427 44.450361 0.125471 -2.281752 5.749121 0.062730 -2.280652 5.748925 0.000000 0.000000 0.000000 0.000000 0.000000 0.000000 0.000000 
0.387406 17.169599 0.483367 1.089473 -3.353776 10.581521 -8.880849 9.887192 -4.232844 -12.857471 -3.273220 -13.769884 -7.990371 2.687134 0.147912 -0.072103 0.615448 -6.423193 0.000000 0.000000 0.000000 3.579598 -16.111772 7.446971 12.722695 8.632571 -7.187047 1.858633 -12.116403 33.317994 3.327126 -0.759798 -8.957827 0.000000 0.000000 0.000000 6.082794 3.303906 5.527015 -6.622673 1.808290 -1.913423 -0.462447 2.066395 0.075088 3.456941 -0.818038 -10.806286 0.210911 -0.217258 3.939348 0.000000 0.000000 0.000000 6.777628 9.457684 8.370928 -73.552326 -9.655672 -16.977197 60.849132 -60.807902 -0.379246 13.121198 -9.739937 -0.198712 13.207215 -9.651326 -0.000000 0.000000 0.000000 0.000000 0.000000 0.000000 0.000000 -9.933216 -7.018170 6.897997 74.276032 12.762938 -6.729308 -16.212230 36.669196 0.196869 -2.863509 7.153385 0.098392 -2.861730 7.152863 0.000000 0.000000 0.000000 0.000000 0.000000 0.000000 0.000000 
